<svg width="58" height="58" viewBox="0 0 58 58" fill="none" xmlns="http://www.w3.org/2000/svg">
<path d="M43.5624 0.891541C42.134 1.01083 40.8373 1.64445 39.8706 2.6917C39.4725 3.12392 39.1286 3.6398 38.8838 4.17582C38.8373 4.27806 38.7986 4.36792 38.7986 4.37566C38.7986 4.3927 39.7746 4.07357 30.1696 7.18744C25.6073 8.66691 20.8435 10.2115 19.584 10.6204C18.3261 11.0279 17.2881 11.3625 17.2789 11.3625C17.2711 11.3625 17.1983 11.3052 17.1208 11.2339C15.9853 10.2146 14.5693 9.56389 13.0744 9.37334C12.5678 9.30983 11.7777 9.30053 11.316 9.35475C9.6584 9.54995 8.21921 10.213 7.00155 11.3424C6.37103 11.9264 5.82881 12.6514 5.42912 13.4462C4.96282 14.3726 4.70255 15.3331 4.63904 16.3664C4.48876 18.8296 5.57939 21.2184 7.55306 22.7444C7.74825 22.8946 8.08133 23.1224 8.26103 23.2293L8.37258 23.2943V33.1766V43.0573L7.35476 43.062L6.33539 43.0666L6.20371 43.1146C5.96049 43.2014 5.77459 43.3609 5.66924 43.5732C5.56235 43.7916 5.56855 43.6042 5.56855 46.2688V48.6824H3.6677C1.59643 48.684 1.62587 48.6824 1.43222 48.7707C1.16266 48.8946 0.978307 49.1162 0.903946 49.4074C0.876061 49.5205 0.874512 49.6135 0.874512 52.9024C0.874512 55.7173 0.879159 56.2982 0.8962 56.3819C0.97211 56.7366 1.26336 57.0279 1.61812 57.1038C1.77459 57.1363 22.4733 57.1363 22.6328 57.1022C22.9675 57.0325 23.2587 56.7521 23.3455 56.4175C23.3795 56.2843 23.3795 49.5252 23.3455 49.395C23.2634 49.0867 23.0341 48.8435 22.7227 48.7335L22.6019 48.6901L20.6468 48.6855L18.6902 48.6809V46.2998C18.6902 43.6971 18.6933 43.8087 18.6003 43.6104C18.4826 43.3625 18.2812 43.1859 18.0085 43.096C17.9295 43.0697 17.8428 43.0666 16.8978 43.062L15.8706 43.0573V33.1781V23.299L15.9373 23.2618C15.9729 23.2417 16.1108 23.1534 16.2424 23.0666C17.7328 22.086 18.8528 20.5693 19.3315 18.8838C19.5453 18.1278 19.6321 17.4663 19.615 16.6979L19.6073 16.309L21.6011 15.663C22.6964 15.3067 23.8412 14.9365 24.1433 14.8389C24.4454 14.7397 24.8404 14.6127 25.0186 14.5538C25.1983 14.495 25.584 14.3695 25.8784 14.275C26.4469 14.0906 26.7862 13.9806 27.3114 13.8102C27.4911 13.7513 27.8768 13.6259 28.1712 13.5314C28.6762 13.3671 28.8606 13.3083 29.5809 13.0743C29.7467 13.0201 30.134 12.8946 30.4407 12.7955C30.7475 12.6963 31.1549 12.5631 31.347 12.5011C31.5391 12.4392 31.9357 12.3106 32.2301 12.2146C33.5112 11.7994 33.9466 11.6584 34.5229 11.4709C34.859 11.3609 35.7622 11.0681 36.529 10.8203C37.2959 10.5724 38.0798 10.3183 38.2719 10.2548C38.464 10.1929 38.8187 10.0767 39.0589 9.99921L39.4988 9.85669L39.5236 9.89232C39.567 9.95428 39.7761 10.2022 39.8939 10.3307C40.213 10.6793 40.7211 11.0898 41.127 11.3269L41.1844 11.3609V14.5538V17.7451H40.701C40.0922 17.7451 39.9698 17.7637 39.773 17.883C39.6476 17.9589 33.0325 23.6336 32.9535 23.7312C32.8792 23.8257 32.7971 23.9961 32.7738 24.1092C32.7444 24.2517 32.7521 24.4531 32.794 24.5802C32.8234 24.6747 36.4547 32.8668 36.6034 33.175C36.6731 33.3207 36.8637 33.5081 37.017 33.5825C37.1131 33.629 37.474 33.725 39.0929 34.1293C40.983 34.6018 41.0573 34.6204 41.1998 34.6189C41.4353 34.6189 41.6429 34.5368 41.8195 34.3726C41.9404 34.2626 42.0163 34.1417 42.072 33.9806C42.1123 33.8675 42.1185 33.8273 42.1185 33.694C42.117 33.5469 42.072 33.3331 41.2324 29.5654C40.7459 27.3795 40.3478 25.5809 40.3478 25.5685C40.3478 25.5561 40.6251 25.268 40.9644 24.9287L41.5794 24.3137H43.5856H45.5918L46.6065 24.9891C47.1642 25.3609 47.6243 25.6677 47.6274 25.6708C47.6305 25.6739 47.237 27.4554 46.7537 29.6305L45.8753 33.5856L45.8815 33.7328C45.9001 34.0829 46.103 34.3896 46.4129 34.5306C46.5585 34.5972 46.6654 34.6204 46.8234 34.6204C46.9427 34.6189 47.1379 34.5724 48.9148 34.1278C51.0604 33.5918 51.0108 33.6073 51.189 33.4462C51.2386 33.3997 51.3083 33.3191 51.3424 33.2649C51.378 33.2107 52.261 31.2432 53.3052 28.8915C54.7568 25.6243 55.2107 24.5879 55.2293 24.4996C55.2943 24.1913 55.1936 23.8706 54.9566 23.6398C54.9009 23.5856 53.3796 22.2765 51.5747 20.7304C49.0651 18.5802 48.2688 17.9063 48.1898 17.8644C47.9853 17.7575 47.9744 17.756 47.3625 17.7482L46.8079 17.742V14.5538V11.3656L46.8823 11.3222C47.5298 10.9458 48.2301 10.2812 48.6638 9.63205C49.4539 8.44847 49.7668 7.08054 49.5639 5.68472C49.4384 4.81718 49.0929 3.95583 48.5848 3.2463C47.646 1.93879 46.2378 1.10223 44.6468 0.911682C44.4036 0.883797 43.7978 0.871403 43.5624 0.891541ZM44.5306 2.78775C45.5949 2.94886 46.5198 3.53136 47.1146 4.41904C47.4369 4.89774 47.6414 5.4446 47.7235 6.04878C47.7529 6.26412 47.7483 6.77381 47.7157 7.00154C47.598 7.81796 47.2541 8.51819 46.684 9.10688C46.0627 9.74825 45.2432 10.1402 44.3369 10.2331C44.1139 10.2548 43.6785 10.244 43.4539 10.2084C42.2254 10.0194 41.172 9.23546 40.6406 8.11695C40.3989 7.60572 40.2781 7.12392 40.2595 6.59875C40.2347 5.89851 40.4686 5.08674 40.8761 4.46087C41.4787 3.53136 42.4779 2.90239 43.5391 2.78155C43.6197 2.77225 43.7111 2.76141 43.7405 2.75831C43.8536 2.74437 44.3757 2.76451 44.5306 2.78775ZM38.385 6.72578C38.4005 7.12237 38.4903 7.69093 38.5879 8.03175C38.6096 8.10301 38.6251 8.16497 38.622 8.16652C38.6158 8.17427 19.3191 14.4314 19.2773 14.4392C19.2386 14.4485 19.2339 14.4423 19.2091 14.3664C19.11 14.0612 18.859 13.5066 18.6545 13.1441C18.5523 12.9644 18.5399 12.9334 18.5631 12.9241C18.5848 12.9148 19.7064 12.5507 21.7343 11.8954C21.8799 11.8474 22.2626 11.7235 22.5864 11.6181C22.9101 11.5128 23.5515 11.3052 24.0116 11.1565C25.6274 10.6328 27.206 10.12 27.4818 10.0302C27.6352 9.98062 28.0008 9.86288 28.2951 9.76683C28.5895 9.67233 28.9659 9.54995 29.1317 9.49573C29.2974 9.44151 29.8102 9.27574 30.2703 9.12547C30.7304 8.97675 31.5081 8.72578 31.9977 8.56622C32.4872 8.4082 33.1146 8.2037 33.3919 8.1154C33.6692 8.02555 34.0209 7.91091 34.1743 7.86134C34.3277 7.81176 34.5864 7.7281 34.7475 7.67543C34.9101 7.62276 35.1782 7.53601 35.3439 7.48178C35.5097 7.42756 36.0333 7.25715 36.5058 7.10378C36.9783 6.95196 37.5887 6.75367 37.8613 6.66381C38.134 6.57396 38.3617 6.50115 38.3664 6.4996C38.371 6.49805 38.3803 6.6003 38.385 6.72578ZM12.8156 11.2293C13.8722 11.3687 14.8094 11.7684 15.6336 12.4268C16.5926 13.1936 17.2897 14.2843 17.5825 15.474C17.7575 16.1882 17.7932 16.9814 17.6816 17.6739C17.4926 18.8513 16.9783 19.8753 16.1433 20.732C15.3021 21.5964 14.2099 22.165 13.0201 22.3602C12.4129 22.4593 11.7529 22.4547 11.1394 22.3447C9.4694 22.0457 7.99612 20.9814 7.18125 19.488C6.55848 18.3447 6.35244 16.9984 6.60805 15.7235C6.95662 13.9791 8.09372 12.5135 9.69713 11.7405C10.3137 11.4446 10.9303 11.2773 11.6956 11.2014C11.8536 11.1859 12.6344 11.206 12.8156 11.2293ZM43.3253 12.0782C43.536 12.1077 43.6476 12.1123 44.0039 12.1123C44.4036 12.1123 44.5802 12.0999 44.8761 12.0503L44.9334 12.0395V14.8931V17.7451H43.9961H43.0589V14.8946C43.0589 13.3269 43.062 12.0441 43.0651 12.0441C43.0697 12.0441 43.1859 12.0596 43.3253 12.0782ZM50.2812 22.0922C51.8691 23.4539 53.1658 24.574 53.1627 24.5833C53.1456 24.6437 49.8985 31.931 49.883 31.9434C49.8598 31.962 48.0798 32.4066 48.0689 32.3974C48.0658 32.3927 48.4113 30.8187 48.8389 28.8977C49.5902 25.5221 49.6166 25.3997 49.6166 25.2432C49.6181 25.1053 49.6119 25.062 49.5747 24.9566C49.5252 24.8141 49.4245 24.6545 49.3269 24.5647C49.2541 24.4981 46.4268 22.6065 46.3106 22.5476C46.275 22.529 46.2053 22.4981 46.1572 22.4795L46.072 22.4469L43.5856 22.4423C40.8187 22.4376 40.9892 22.4314 40.7614 22.543C40.6561 22.5941 40.591 22.6576 39.5871 23.6615C38.6096 24.6406 38.5213 24.732 38.4779 24.8265C38.4098 24.9706 38.3803 25.096 38.3803 25.2448C38.3803 25.3594 38.4733 25.7932 39.1596 28.8838C39.694 31.2835 39.9342 32.3943 39.9218 32.3974C39.9047 32.402 38.1201 31.9605 38.1092 31.9496C38.1077 31.9465 37.3672 30.2858 36.4671 28.2579C34.8776 24.6824 34.8296 24.5724 34.8575 24.5461C34.8745 24.5306 36.1727 23.4152 37.7452 22.0689L40.6034 19.6197H43.9992H47.3966L50.2812 22.0922ZM10.5105 24.1278C11.0325 24.2424 11.6569 24.3137 12.1294 24.3137C12.6034 24.3137 13.2634 24.2362 13.7808 24.1185C13.8722 24.0984 13.9589 24.0813 13.9713 24.0813C13.9946 24.0813 13.9961 24.9845 13.9961 33.5701V43.0589H12.1216H10.2471V33.5701C10.2471 24.5244 10.2486 24.0813 10.275 24.0813C10.2889 24.0813 10.3958 24.1015 10.5105 24.1278ZM16.8156 46.8079V48.6824H12.1294H7.44306V46.8079V44.9334H12.1294H16.8156V46.8079ZM21.4942 52.9039V55.251H12.1216H2.74903V52.9039V50.5569H12.1216H21.4942V52.9039Z" fill="white"/>
<path d="M11.8553 14.0132C10.6206 14.1324 9.61361 15.0496 9.36264 16.2827C9.32082 16.4888 9.30687 16.9132 9.33321 17.1379C9.45559 18.1789 10.1434 19.062 11.1303 19.4431C11.3007 19.5081 11.5269 19.5654 11.7499 19.598C12.0056 19.6352 12.43 19.6212 12.6887 19.567C13.7949 19.3346 14.6547 18.4733 14.8793 17.3749C15.0606 16.4857 14.8018 15.5685 14.1822 14.9024C13.5811 14.2548 12.7275 13.9295 11.8553 14.0132ZM12.351 15.9032C12.6733 15.9806 12.9583 16.2688 13.0373 16.5987C13.0667 16.7196 13.0621 16.9427 13.0296 17.0558C12.932 17.3842 12.6702 17.6398 12.3464 17.7219C11.9358 17.8257 11.4757 17.6104 11.2883 17.2277C11.1101 16.8637 11.1798 16.4407 11.4633 16.1572C11.609 16.0101 11.8042 15.9109 12.0056 15.8799C12.0722 15.8706 12.2643 15.883 12.351 15.9032Z" fill="white"/>
<path d="M34.3759 36.5352C34.0412 36.6328 33.7794 36.9117 33.7097 37.2416C33.6896 37.3362 33.6865 38.0364 33.6865 42.5507V47.7529H32.6919C31.5982 47.7529 31.5951 47.7529 31.403 47.8474C31.2186 47.9372 31.0482 48.1092 30.9661 48.2873C30.8763 48.481 30.8825 48.2037 30.8825 52.4392C30.8825 56.732 30.8747 56.3989 30.9801 56.6142C31.0513 56.7614 31.2419 56.9489 31.3937 57.0232C31.4572 57.0542 31.5594 57.0898 31.6183 57.1022C31.7128 57.1224 33.2636 57.1255 43.9979 57.1255C52.2364 57.1255 56.2969 57.1208 56.3526 57.11C56.7322 57.0387 57.0389 56.732 57.1102 56.3524C57.121 56.2982 57.1257 54.9674 57.1257 52.433C57.1257 48.1898 57.1319 48.4903 57.0234 48.2703C56.9181 48.0581 56.7337 47.8939 56.4936 47.8009L56.3898 47.7606L55.3519 47.7529L54.3139 47.7451L54.3062 42.4856L54.2984 37.2262L54.2612 37.127C54.2101 36.9891 54.0862 36.811 53.9793 36.7227C53.8755 36.6359 53.733 36.5631 53.6013 36.529C53.5192 36.5089 52.4642 36.5058 43.9886 36.5073C34.9677 36.5073 34.4642 36.5089 34.3759 36.5352ZM52.4316 39.3176V40.2548H43.9963H35.561V39.3176V38.3803H43.9963H52.4316V39.3176ZM52.4316 43.0666V44.0038H43.9963H35.561V43.0666V42.1293H43.9963H52.4316V43.0666ZM52.4316 46.8156V47.7529H43.9963H35.561V46.8156V45.8784H43.9963H52.4316V46.8156ZM55.2512 52.4392V55.2509H44.0041H32.757V52.4392V49.6274H44.0041H55.2512V52.4392Z" fill="white"/>
<path d="M34.6313 52.4392V53.3764H38.3804H42.1294V52.4392V51.5019H38.3804H34.6313V52.4392Z" fill="white"/>
<path d="M44.9331 52.4392V53.3764H48.6821H52.4312V52.4392V51.5019H48.6821H44.9331V52.4392Z" fill="white"/>
</svg>
