<svg width="32" height="36" viewBox="0 0 32 36" fill="none" xmlns="http://www.w3.org/2000/svg">
<g id="Group 58">
<path id="Vector" d="M16.0062 35.5C15.5374 35.5 15.072 35.377 14.661 35.1404L10.3794 32.6056C9.73993 32.248 10.052 32.1215 10.2629 32.0486C11.1156 31.75 11.2886 31.6826 12.1987 31.1657C12.2944 31.1112 12.4196 31.1304 12.5175 31.1882L15.8068 33.1401C15.9256 33.2043 16.0941 33.2043 16.2042 33.1401L29.0294 25.7371C29.1482 25.6697 29.2253 25.5316 29.2253 25.3904V10.5908C29.2253 10.4432 29.1482 10.3115 29.0269 10.2377L16.2068 2.84112C16.088 2.7705 15.9307 2.7705 15.8119 2.84112L2.99442 10.2377C2.87018 10.3083 2.7912 10.4464 2.7912 10.5876V25.3872C2.7912 25.5284 2.86825 25.6633 2.99024 25.7307L6.50233 27.7596C8.40926 28.7131 9.57461 27.5895 9.57461 26.4594V11.8525C9.57461 11.6438 9.73833 11.4833 9.947 11.4833H11.5714C11.7737 11.4833 11.9406 11.6438 11.9406 11.8525V26.4658C11.9406 29.0084 10.5538 30.4691 8.1428 30.4691C7.40122 30.4691 6.81694 30.4691 5.1861 29.6665L1.82169 27.7275C0.990214 27.246 0.476562 26.3471 0.476562 25.3872V10.5876C0.476562 9.62452 0.990214 8.72563 1.82169 8.25051L14.6597 0.844307C15.472 0.385231 16.5506 0.385231 17.3564 0.844307L30.1784 8.25372C31.0067 8.73206 31.5235 9.62773 31.5235 10.5908V25.3904C31.5235 26.3503 31.0067 27.246 30.1784 27.7275L17.3564 35.1337C16.9455 35.3713 16.48 35.4933 16.0049 35.4933" fill="#689F63"/>
<path id="Vector_2" d="M19.9679 25.3021C14.3563 25.3021 13.1797 22.7262 13.1797 20.5656C13.1797 20.3602 13.3453 20.1964 13.5511 20.1964H15.2076C15.3906 20.1964 15.5447 20.3297 15.5736 20.5104C15.824 22.1984 16.5688 23.0498 19.9621 23.0498C22.6652 23.0498 23.8145 22.4392 23.8145 21.0057C23.8145 20.1807 23.4871 19.5675 19.288 19.1566C15.7759 18.8099 13.6057 18.0362 13.6057 15.2272C13.6057 12.6397 15.7887 11.0987 19.4453 11.0987C23.5513 11.0987 25.5866 12.5241 25.8434 15.5867C25.8531 15.6927 25.8145 15.7954 25.7439 15.8724C25.6733 15.9463 25.5738 15.9912 25.471 15.9912H23.8049C23.6315 15.9912 23.4806 15.8692 23.4453 15.7023C23.044 13.927 22.0745 13.3588 19.4388 13.3588C16.4886 13.3588 16.1451 14.3861 16.1451 15.1566C16.1451 16.0908 16.5496 16.3636 20.5304 16.8901C24.4726 17.4134 26.3442 18.1518 26.3442 20.9223C26.3442 23.7153 24.0135 25.3172 19.9493 25.3172" fill="#689F63"/>
</g>
</svg>
