<svg width="60" height="60" viewBox="0 0 60 60" fill="none" xmlns="http://www.w3.org/2000/svg">
<path d="M6.56536 7.5011L6.56071 14.0588L5.85583 14.0681C5.07349 14.0789 4.94646 14.0913 4.51579 14.1967C2.75126 14.6305 1.39572 16.0402 1.03167 17.8156C0.937165 18.2834 0.943362 16.9465 0.94801 33.8419L0.952657 49.2408L0.988288 49.4562C1.19123 50.6909 1.83105 51.7552 2.81323 52.4957C3.36009 52.9078 4.02005 53.2068 4.66296 53.3369C5.12307 53.4298 4.51579 53.4205 11.4639 53.4298L17.8078 53.4391L17.8125 55.309L17.8156 57.1804H15.941H14.0665V58.1177V59.0549H29.9999H45.9333V58.1177V57.1804H44.0588H42.1843L42.1874 55.309L42.192 53.4391L48.5359 53.4298C55.484 53.4205 54.8767 53.4298 55.3368 53.3369C56.271 53.1479 57.2005 52.615 57.845 51.8961C58.4724 51.1959 58.8504 50.4043 59.0131 49.45L59.0456 49.2563L59.0503 33.8497C59.0549 19.8543 59.0533 18.4229 59.0317 18.2261C58.8736 16.8349 58.1161 15.6064 56.9356 14.8288C56.3795 14.4616 55.7443 14.2184 55.058 14.1099C54.8767 14.082 54.7559 14.0759 54.144 14.0681L53.4391 14.0588L53.4344 7.5011L53.4314 0.944946H29.9999H6.56846L6.56536 7.5011ZM51.5568 5.63123V8.44301H29.9999H8.44297V5.63123V2.81946H29.9999H51.5568V5.63123ZM51.5568 23.4391V36.5607H39.2362H26.9155L26.9805 36.3005C27.0162 36.158 27.0642 35.9271 27.0874 35.7861C27.1107 35.6452 27.1324 35.5166 27.1355 35.4995C27.1401 35.4763 27.1866 35.45 27.3245 35.3942C27.6529 35.2625 27.9658 35.0534 28.2276 34.7947C29.0843 33.9426 29.3028 32.6847 28.7838 31.6064C28.5917 31.2083 28.3159 30.8644 27.9751 30.5979C27.9162 30.553 27.8698 30.5143 27.8698 30.5127C27.8698 30.5112 27.8977 30.4461 27.9302 30.3702C28.1796 29.8001 28.5204 29.1913 28.8814 28.6754C29.3539 27.9999 29.5568 27.67 29.8156 27.1649C30.8241 25.1913 31.1618 22.9697 30.7884 20.7668C30.3407 18.1177 28.8489 15.7226 26.6614 14.1425C25.2981 13.1556 23.6715 12.5065 22.0092 12.285C21.3895 12.2013 20.5994 12.1703 20.0231 12.206C18.3454 12.3098 16.8318 12.773 15.3988 13.6219C13.3338 14.8473 11.7288 16.7792 10.9155 19.0193C10.3872 20.474 10.2044 22.0619 10.381 23.6483C10.4616 24.381 10.6273 25.1185 10.8675 25.8218C11.1757 26.7281 11.5723 27.5135 12.144 28.3501C12.6815 29.1355 13.0146 29.7226 13.295 30.3671L13.3663 30.5329L13.2547 30.6181C13.0363 30.7854 12.7528 31.1045 12.5979 31.3586C12.2028 32.0046 12.0882 32.7993 12.285 33.5321C12.5251 34.4322 13.1819 35.1293 14.1083 35.4686C14.1099 35.4686 14.1223 35.546 14.1362 35.639C14.1688 35.8652 14.2121 36.0789 14.271 36.3051C14.2973 36.4074 14.3221 36.5065 14.3252 36.5251L14.333 36.5607H11.388H8.44297V27.1882V17.8156H7.50572H6.56846V28.1254V38.4353H10.9062H15.2424L15.3554 38.5855C16.412 40.0015 17.9813 40.9403 19.6978 41.1835C20.0324 41.23 20.2462 41.2439 20.6273 41.2439C21.0224 41.2439 21.23 41.23 21.5878 41.1773C22.8039 40.9992 23.9317 40.4817 24.8907 39.6638C25.2377 39.3679 25.6916 38.8752 25.9333 38.5313L26.0015 38.4353H39.7164H53.4314V27.1882V15.9411H54.0015C54.7079 15.9411 54.8705 15.9581 55.2362 16.0759C56.1982 16.381 56.9201 17.1928 57.137 18.2122L57.1726 18.381L57.1773 32.1564L57.1804 45.9333H37.1695H17.1571L15.7505 44.9961L14.3454 44.0588H8.5824H2.81943L2.82253 31.2191L2.82717 18.381L2.8628 18.2122C3.04871 17.3415 3.58627 16.6351 4.36397 16.2401C4.57156 16.1347 4.85816 16.0356 5.06575 15.9953C5.13856 15.9813 5.21137 15.9659 5.22841 15.9612C5.24545 15.955 5.97357 15.9473 6.84731 15.9426L8.43523 15.9333L8.43988 13.1246L8.44297 10.3175H29.9999H51.5568V23.4391ZM21.4794 14.1037C22.5545 14.2215 23.436 14.4755 24.3609 14.9341C27.2377 16.3594 29.0626 19.3013 29.0626 22.5096C29.0626 24.2432 28.5313 25.9054 27.515 27.3555C26.8674 28.2788 26.4399 29.0425 26.1099 29.8667L26.0541 30.0077H23.8094H21.5646L21.5677 28.0619L21.5723 26.1161L21.7118 26.0728C22.962 25.6963 23.9503 24.663 24.2602 23.4081C24.3485 23.0487 24.3609 22.9387 24.3609 22.4941C24.3609 22.1378 24.3562 22.0588 24.3252 21.8884C24.254 21.4918 24.161 21.2099 23.9813 20.8442C23.4174 19.6978 22.3438 18.9372 21.0534 18.773C20.838 18.7466 20.3547 18.7513 20.1316 18.7823C19.7319 18.8381 19.3461 18.9558 18.9852 19.1324C18.601 19.3198 18.2834 19.546 17.9782 19.8528C17.4004 20.4306 17.0394 21.1463 16.9155 21.9597C16.8752 22.2168 16.869 22.6909 16.9 22.9356C16.9883 23.6328 17.2749 24.3098 17.7087 24.8442C18.1641 25.4066 18.8256 25.8528 19.5197 26.0666L19.6823 26.1161V28.0588V29.9999L17.4267 30.0046L15.1711 30.0077L15.1122 29.8652C14.7621 29.0131 14.3314 28.2215 13.7877 27.436C13.5398 27.0766 13.4422 26.9264 13.2981 26.6738C12.7791 25.7691 12.4275 24.7466 12.2772 23.7056C12.2121 23.247 12.1998 23.0549 12.1998 22.4864C12.1998 21.9333 12.2121 21.7366 12.271 21.3013C12.7373 17.9054 15.3601 15.0534 18.7358 14.2741C19.1401 14.1812 19.563 14.1177 20.0154 14.082C20.285 14.0619 21.2238 14.0759 21.4794 14.1037ZM20.9774 20.6599C21.6854 20.7931 22.2586 21.3353 22.443 22.0433C22.4972 22.2509 22.5096 22.5979 22.4709 22.8148C22.3299 23.6049 21.7226 24.2106 20.9372 24.3485C20.7466 24.381 20.3702 24.3686 20.1905 24.3237C19.4639 24.1409 18.9248 23.5739 18.7807 22.838C18.7435 22.6413 18.7466 22.3299 18.79 22.1223C18.9774 21.2253 19.7923 20.5871 20.6939 20.6289C20.7822 20.6336 20.9108 20.6475 20.9774 20.6599ZM26.4802 31.9054C26.6459 31.9488 26.7683 32.0201 26.9031 32.1533C27.0472 32.2958 27.1262 32.4368 27.1649 32.6181C27.2656 33.0952 26.9821 33.5662 26.5065 33.7133L26.3903 33.749H20.6351C14.333 33.749 14.8132 33.7567 14.601 33.656C14.3764 33.5491 14.1905 33.3415 14.1114 33.1123C14.0789 33.0209 14.0743 32.9759 14.0743 32.804C14.0758 32.6134 14.0774 32.5964 14.1254 32.4786C14.2385 32.1951 14.474 31.9844 14.7637 31.907C14.838 31.8868 15.5816 31.8837 20.6196 31.8837C25.6761 31.8822 26.4027 31.8853 26.4802 31.9054ZM25.2129 35.6498C25.2098 35.6607 25.1912 35.7319 25.1742 35.8094C24.8597 37.1138 23.9534 38.2494 22.7342 38.869C21.5894 39.4515 20.2509 39.5321 19.027 39.0921C18.7869 39.0069 18.3609 38.7978 18.144 38.6614C17.0657 37.9813 16.319 36.9186 16.0433 35.6731L16.034 35.6312H20.6258C24.2943 35.6312 25.2191 35.6359 25.2129 35.6498ZM15.1788 46.8706L16.5839 47.8078H36.8829H57.1819L57.1773 48.4616C57.1711 49.0704 57.168 49.1293 57.1355 49.2873C56.9015 50.4182 56.0479 51.2718 54.9093 51.5135L54.7404 51.5491L38.1533 51.5538L21.5646 51.5569V52.4941V53.4314H30.9372H40.3097V55.3059V57.1804H29.9999H19.6901V54.3686V51.5569L12.4678 51.5522L5.2439 51.5476L5.0642 51.5073C4.81943 51.4515 4.62733 51.3849 4.41819 51.2858C3.61106 50.8985 3.0518 50.1812 2.8628 49.2858L2.82717 49.1169L2.82253 47.5243L2.81788 45.9333H8.2958H13.7722L15.1788 46.8706Z" fill="white"/>
<path d="M10.3174 5.63122V6.56848L11.2515 6.56538L12.1842 6.56074L12.1888 5.62658L12.1919 4.69397H11.2546H10.3174V5.63122Z" fill="white"/>
<path d="M14.0664 5.63122V6.56848L15.0006 6.56538L15.9332 6.56074L15.9378 5.62658L15.9409 4.69397H15.0037H14.0664V5.63122Z" fill="white"/>
<path d="M17.8154 5.63122V6.56848H18.7527H19.6899V5.63122V4.69397H18.7527H17.8154V5.63122Z" fill="white"/>
<path d="M32.8115 15.941V19.6901H41.2468H49.6822V15.941V12.192H41.2468H32.8115V15.941ZM47.8077 15.941V17.8155H41.2468H34.686V15.941V14.0665H41.2468H47.8077V15.941Z" fill="white"/>
<path d="M32.8115 22.5018V23.4391H41.2468H49.6822V22.5018V21.5646H41.2468H32.8115V22.5018Z" fill="white"/>
<path d="M32.8115 26.2509V27.1881H41.2468H49.6822V26.2509V25.3136H41.2468H32.8115V26.2509Z" fill="white"/>
<path d="M32.8115 29.9999V30.9371H41.2468H49.6822V29.9999V29.0626H41.2468H32.8115V29.9999Z" fill="white"/>
<path d="M32.8115 33.7489V34.6862H41.2468H49.6822V33.7489V32.8116H41.2468H32.8115V33.7489Z" fill="white"/>
<path d="M4.69385 48.7451V49.6824H5.63111H6.56836L6.56527 48.7482L6.56062 47.8156L5.62801 47.811L4.69385 47.8079V48.7451Z" fill="white"/>
<path d="M8.44287 48.7451V49.6824H9.38013H10.3174L10.3143 48.7482L10.3096 47.8156L9.37703 47.811L8.44287 47.8079V48.7451Z" fill="white"/>
<path d="M12.1919 48.7451V49.6824H13.1292H14.0664V48.7451V47.8079H13.1292H12.1919V48.7451Z" fill="white"/>
</svg>
